<?xml version="1.0" standalone="yes"?>
<svg xmlns="http://www.w3.org/2000/svg" width="249" height="286">
<path fill="currentColor" d="M88 192C87.2035 182.877 83.0017 173.922 80.8843 165C76.8192 147.872 74.4653 129.613 76.1698 112C77.5585 97.6496 82.284 82.7337 90.7855 71C112.049 41.6517 155.706 26.2921 191 26C187.109 22.5702 181.887 21.9654 177 20.5725C164.877 17.1168 152.646 15.0008 140 15C124.08 14.999 109.123 16.316 94 21.6983C54.1625 35.8765 27.9524 72.212 21.081 113C18.2659 129.71 20.2354 146.571 23.6011 163C24.6406 168.074 25.9694 177.421 29.8434 181.142C33.1549 184.323 41.6241 184.355 46 185.08C59.9359 187.389 74.2609 188.691 88 192M195 78C196.313 94.4966 197.983 108.739 192.784 125C189.449 135.431 183.78 145.515 176.905 154C166.722 166.568 154.539 177.378 140 184.63C107.99 200.595 66.753 198.733 33 190C33.8912 196.035 36.6383 201.301 38.6559 207C44.9233 224.703 54.047 241.891 59 260C101.923 260 143.165 247.157 177 220.199C202.143 200.166 219.388 173.972 218.996 141C218.886 131.704 216.574 121.796 213.645 113C209.648 100.998 204.115 87.0426 195 78M128 80.4282C112.325 82.6779 99.1587 93.9968 96.3218 110C92.3418 132.451 110.573 157.589 135 154.707C141.69 153.917 148.506 152.06 154 148.072C179.069 129.874 173.411 87.0865 141 80.9344C136.641 80.107 132.406 79.7959 128 80.4282z"/>
</svg>
