<?xml version="1.0" standalone="yes"?>
<!-- <svg xmlns="http://www.w3.org/2000/svg" width="180" height="249">
	<path style="fill:#000000; stroke:none;" d="M9 14L9 65L11 65C11.1332 49.1248 20.7436 35.5249 32 25.0903C36.074 21.3137 42.0145 18.6552 45 14L9 14M42 91C71.6708 79.5541 108.056 79.0027 135 98.0432C141.968 102.967 148.198 109.661 152.546 117C154.014 119.478 156.302 122.93 155.443 125.961C154.521 129.213 150.623 131.486 148 133.251C140.158 138.528 131.13 141.671 122 143.87C93.9517 150.626 61.678 146.167 37 130.935C30.9429 127.197 25.1252 122.914 20.0039 117.961C16.3749 114.451 13.58 110.232 9 108L9 231L162 231L162 182C162 173.883 161.003 165.038 162.144 157C162.944 151.369 167.425 146.259 169.547 141C173.497 131.213 174.566 119.119 171.251 109C166.623 94.8756 155.059 85.0573 142 78.784C118.812 67.6445 90.1858 65.6247 66 74.814C57.5305 78.032 47.2191 82.2635 41 89C37.9232 85.6269 35.2618 82.167 33.3241 78C22.3849 54.4759 41.7069 37.4678 54 20C43.0056 23.1734 34.1406 31.8346 27.7215 41C13.5578 61.2234 7.13912 90.5462 22.5949 112C38.2026 133.665 69.5466 141.362 95 141.985C110.224 142.358 126.628 139.76 140 132.127C148.04 127.538 152.892 123.972 147.532 115.005C146.76 113.714 145.832 112.337 144.671 111.361C141.173 108.42 136.7 111.089 133 112.333C124.989 115.025 116.485 116.818 108 116.985C84.1338 117.454 58.9232 107.572 42 91M177 77C174.325 80.7972 166.643 85.521 166.022 90.0895C165.666 92.7031 167.948 95.7287 169 98L171 98C174.224 91.093 178.317 84.7751 179 77L177 77z"/>
	<path style="fill:#ffffff; stroke:none;" d="M17 210C17 212.976 16.1108 217.897 18.0278 220.411C19.9193 222.892 25.1583 223.118 28 223.561C38.9863 225.273 52.497 221.406 54.5177 209C56.3955 197.472 45.3332 191.149 37 186.135C33.54 184.053 26.7563 179.988 28.4074 175.019C31.4379 165.899 43.9675 171.975 50 173C49.9981 170.489 50.6006 166.723 48.9722 164.589C46.9863 161.986 41.9245 162.085 39 162.015C30.4043 161.807 19.6367 163.45 16.6528 173C11.0039 191.08 35.3309 192.475 41.6813 204.09C44.5757 209.384 40.5297 214.892 35 215.757C28.7246 216.739 22.302 212.778 17 210M152 211C145.493 212.86 138.843 217.057 132.004 213.682C120.525 208.018 119.708 183.424 126.853 174.189C132.987 166.261 141.534 171.501 142 180L154 180C153.367 175.326 152.243 170.67 148.786 167.214C141.7 160.128 127.662 160.363 120.105 166.558C112.32 172.94 110.63 185.58 111.039 195C111.461 204.691 114.77 216.379 124.004 221.164C130.341 224.448 137.215 224.376 144 222.764C146.349 222.206 149.484 221.607 150.972 219.49C152.556 217.237 151.998 213.599 152 211M65 163L65 223C74.2845 223 86.4662 224.975 94.9961 220.547C103.537 216.114 105.417 203.833 100.005 196.185C98.0122 193.369 94.8683 191.769 92 190C101.463 184.973 103.366 170.479 92.9599 165C85.2137 160.922 73.5059 163 65 163z"/>
	<path style="fill:#000000; stroke:none;" d="M76 171L76 187C79.4054 186.998 83.8576 187.587 86.6821 185.258C90.2475 182.317 89.8694 174.407 85.8519 172.028C83.096 170.396 79.07 171 76 171M76 195L76 215C80.1789 214.997 85.15 215.428 88.7716 212.91C93.3931 209.698 93.0807 200.945 88.8519 197.564C85.3171 194.738 80.2576 195.012 76 195z"/>
</svg> -->
<svg xmlns="http://www.w3.org/2000/svg" width="180" height="249">
    <path fill-rule="evenodd" fill="currentColor" d="M9 14L9 65L11 65C11.1332 49.1248 20.7436 35.5249 32 25.0903C36.074 21.3137 42.0145 18.6552 45 14L9 14M42 91C71.6708 79.5541 108.056 79.0027 135 98.0432C141.968 102.967 148.198 109.661 152.546 117C154.014 119.478 156.302 122.93 155.443 125.961C154.521 129.213 150.623 131.486 148 133.251C140.158 138.528 131.13 141.671 122 143.87C93.9517 150.626 61.678 146.167 37 130.935C30.9429 127.197 25.1252 122.914 20.0039 117.961C16.3749 114.451 13.58 110.232 9 108L9 231L162 231L162 182C162 173.883 161.003 165.038 162.144 157C162.944 151.369 167.425 146.259 169.547 141C173.497 131.213 174.566 119.119 171.251 109C166.623 94.8756 155.059 85.0573 142 78.784C118.812 67.6445 90.1858 65.6247 66 74.814C57.5305 78.032 47.2191 82.2635 41 89C37.9232 85.6269 35.2618 82.167 33.3241 78C22.3849 54.4759 41.7069 37.4678 54 20C43.0056 23.1734 34.1406 31.8346 27.7215 41C13.5578 61.2234 7.13912 90.5462 22.5949 112C38.2026 133.665 69.5466 141.362 95 141.985C110.224 142.358 126.628 139.76 140 132.127C148.04 127.538 152.892 123.972 147.532 115.005C146.76 113.714 145.832 112.337 144.671 111.361C141.173 108.42 136.7 111.089 133 112.333C124.989 115.025 116.485 116.818 108 116.985C84.1338 117.454 58.9232 107.572 42 91M177 77C174.325 80.7972 166.643 85.521 166.022 90.0895C165.666 92.7031 167.948 95.7287 169 98L171 98C174.224 91.093 178.317 84.7751 179 77L177 77z M17 210C17 212.976 16.1108 217.897 18.0278 220.411C19.9193 222.892 25.1583 223.118 28 223.561C38.9863 225.273 52.497 221.406 54.5177 209C56.3955 197.472 45.3332 191.149 37 186.135C33.54 184.053 26.7563 179.988 28.4074 175.019C31.4379 165.899 43.9675 171.975 50 173C49.9981 170.489 50.6006 166.723 48.9722 164.589C46.9863 161.986 41.9245 162.085 39 162.015C30.4043 161.807 19.6367 163.45 16.6528 173C11.0039 191.08 35.3309 192.475 41.6813 204.09C44.5757 209.384 40.5297 214.892 35 215.757C28.7246 216.739 22.302 212.778 17 210M152 211C145.493 212.86 138.843 217.057 132.004 213.682C120.525 208.018 119.708 183.424 126.853 174.189C132.987 166.261 141.534 171.501 142 180L154 180C153.367 175.326 152.243 170.67 148.786 167.214C141.7 160.128 127.662 160.363 120.105 166.558C112.32 172.94 110.63 185.58 111.039 195C111.461 204.691 114.77 216.379 124.004 221.164C130.341 224.448 137.215 224.376 144 222.764C146.349 222.206 149.484 221.607 150.972 219.49C152.556 217.237 151.998 213.599 152 211M65 163L65 223C74.2845 223 86.4662 224.975 94.9961 220.547C103.537 216.114 105.417 203.833 100.005 196.185C98.0122 193.369 94.8683 191.769 92 190C101.463 184.973 103.366 170.479 92.9599 165C85.2137 160.922 73.5059 163 65 163z M76 171L76 187C79.4054 186.998 83.8576 187.587 86.6821 185.258C90.2475 182.317 89.8694 174.407 85.8519 172.028C83.096 170.396 79.07 171 76 171M76 195L76 215C80.1789 214.997 85.15 215.428 88.7716 212.91C93.3931 209.698 93.0807 200.945 88.8519 197.564C85.3171 194.738 80.2576 195.012 76 195z"/>
</svg>